<svg xmlns="http://www.w3.org/2000/svg" width="24.009" height="18.181" viewBox="0 0 24.009 18.181">
  <g id="Group_661" data-name="Group 661" transform="translate(-2 -5.398)">
    <path id="Path_115" data-name="Path 115" d="M25.151,22.813H5.246a1.493,1.493,0,0,1-1.531-1.448V15.216a1.493,1.493,0,0,1,1.531-1.448h7.166a.857.857,0,0,0,0-1.715H5.246A3.209,3.209,0,0,0,2,15.216v6.149a3.208,3.208,0,0,0,3.246,3.162H25.151a.857.857,0,1,0,0-1.714Z" transform="translate(0 -0.949)" fill="#fff"/>
    <path id="Path_116" data-name="Path 116" d="M17.754,11.22a1.05,1.05,0,0,1,0,1.483L13.4,17.062a.857.857,0,1,0,1.212,1.212l4.358-4.359a2.767,2.767,0,0,0,0-3.907L14.607,5.649a.857.857,0,0,0-1.212,1.212Z" transform="translate(-1.588 0)" fill="#fff"/>
  </g>
</svg>
